sfk_cyclingleg_states
version=1
nRows=12
nColumns=53
inDegrees=yes

# SIMM Motion File Header:
name sfk_cyclingleg_states
datacolumns 53
datarows 12
otherdata 1
range 0.24527651 0.25351979
endheader
time	/jointset/bb/crank_angle/value	/jointset/bb/crank_angle/speed	/jointset/spindle/pedal_angle_r/value	/jointset/spindle/pedal_angle_r/speed	/jointset/ground_pelvis/pelvis_tilt/value	/jointset/ground_pelvis/pelvis_tilt/speed	/jointset/ground_pelvis/pelvis_list/value	/jointset/ground_pelvis/pelvis_list/speed	/jointset/ground_pelvis/pelvis_rotation/value	/jointset/ground_pelvis/pelvis_rotation/speed	/jointset/ground_pelvis/pelvis_tx/value	/jointset/ground_pelvis/pelvis_tx/speed	/jointset/ground_pelvis/pelvis_ty/value	/jointset/ground_pelvis/pelvis_ty/speed	/jointset/ground_pelvis/pelvis_tz/value	/jointset/ground_pelvis/pelvis_tz/speed	/jointset/hip_r/hip_angle_r/value	/jointset/hip_r/hip_angle_r/speed	/jointset/hip_r/hip_adduction_r/value	/jointset/hip_r/hip_adduction_r/speed	/jointset/hip_r/hip_rotation_r/value	/jointset/hip_r/hip_rotation_r/speed	/jointset/knee_r/knee_angle_r/value	/jointset/knee_r/knee_angle_r/speed	/jointset/knee_r/tib_tx_r/value	/jointset/knee_r/tib_tx_r/speed	/jointset/knee_r/tib_ty_r/value	/jointset/knee_r/tib_ty_r/speed	/jointset/tib_pat_r/pat_angle_r/value	/jointset/tib_pat_r/pat_angle_r/speed	/jointset/tib_pat_r/pat_tx_r/value	/jointset/tib_pat_r/pat_tx_r/speed	/jointset/tib_pat_r/pat_ty_r/value	/jointset/tib_pat_r/pat_ty_r/speed	/jointset/ankle_r/ankle_angle_r/value	/jointset/ankle_r/ankle_angle_r/speed	/jointset/subtalar_r/subtalar_angle_r/value	/jointset/subtalar_r/subtalar_angle_r/speed	/jointset/mtp_r/mtp_angle_r/value	/jointset/mtp_r/mtp_angle_r/speed	/forceset/bifemlh_r/activation	/forceset/bifemlh_r/fiber_length	/forceset/bifemsh_r/activation	/forceset/bifemsh_r/fiber_length	/forceset/glut_max2_r/activation	/forceset/glut_max2_r/fiber_length	/forceset/vas_int_r/activation	/forceset/vas_int_r/fiber_length	/forceset/med_gas_r/activation	/forceset/med_gas_r/fiber_length	/forceset/tib_ant_r/activation	/forceset/tib_ant_r/fiber_length
      0.24527651	   -127.90160601	   -480.13863232	    145.62400385	    562.03049956	      0.00000000	      0.00000000	     -0.00000000	      0.00000000	      0.00000000	      0.00000000	      0.00000000	      0.00000000	     -0.00000000	     -0.00000000	     -0.00000000	     -0.00000000	     46.07585385	   -223.44966838	      4.37414200	     -0.57569659	      1.52989354	     24.34993482	    -50.88871040	    267.61660030	      0.00395716	     -0.03129572	     -0.47329575	      0.07454651	     17.11690229	    -11.33914968	      0.04542962	      0.07427019	     -0.02326527	     -0.01032433	     22.94342373	     37.52570150	     -0.00000000	      0.00000000	      0.00000000	      0.00000000	     -0.00613726	      0.12989193	     -0.00613726	      0.17133240	     -0.00613726	      0.13551124	     -0.00613726	      0.12275460	      0.05000000	      0.10000000	      0.05000000	      0.10000000
      0.24582094	   -128.16301072	   -480.13863232	    145.92995086	    561.87312744	      0.00000000	      0.00000000	     -0.00000000	      0.00000000	      0.00000000	      0.00000000	      0.00000000	      0.00000000	     -0.00000000	     -0.00000000	     -0.00000000	     -0.00000000	     45.95425569	   -223.24330804	      4.37382670	     -0.58255985	      1.54314998	     24.34779200	    -50.74318377	    266.97758524	      0.00394010	     -0.03138569	     -0.47325525	      0.07423751	     17.11070595	    -11.42316443	      0.04546998	      0.07400930	     -0.02327089	     -0.01031259	     22.96393061	     37.80659550	     -0.00000000	      0.00000000	      0.00000000	      0.00000000	     -0.00620735	      0.12984923	     -0.00620735	      0.17144856	     -0.00620735	      0.13542320	     -0.00620735	      0.12263834	      0.05000000	      0.10000000	      0.05000000	      0.10000000
      0.24650129	   -128.48967043	   -480.13863232	    146.31214907	    561.66847059	      0.00000000	     -0.00000000	     -0.00000000	      0.00000000	      0.00000000	      0.00000000	      0.00000000	      0.00000000	     -0.00000000	     -0.00000000	     -0.00000000	     -0.00000000	     45.80246373	   -222.97571662	      4.37342747	     -0.59100953	      1.55971364	     24.34399795	    -50.56182290	    266.16373351	      0.00391871	     -0.03149255	     -0.47320488	      0.07384778	     17.10289882	    -11.52714041	      0.04552022	      0.07367976	     -0.02327790	     -0.01029741	     22.98977086	     38.15520552	     -0.00000000	      0.00000000	      0.00000000	      0.00000000	     -0.00629495	      0.12979577	     -0.00629495	      0.17152418	     -0.00629495	      0.13531313	     -0.00629495	      0.12249329	      0.05000000	      0.10000000	      0.05000000	      0.10000000
      0.24712584	   -128.78954273	   -480.13863232	    146.66288034	    561.47248683	      0.00000000	     -0.00000000	     -0.00000000	      0.00000000	      0.00000000	      0.00000000	      0.00000000	      0.00000000	     -0.00000000	     -0.00000000	     -0.00000000	     -0.00000000	     45.66328270	   -222.72038110	      4.37305597	     -0.59863922	      1.57491639	     24.33937694	    -50.39582670	    265.40130259	      0.00389901	     -0.03158515	     -0.47315887	      0.07348646	     17.09566997	    -11.62154798	      0.04556614	      0.07337371	     -0.02328433	     -0.01028295	     23.01370012	     38.47274272	     -0.00000000	      0.00000000	      0.00000000	      0.00000000	     -0.00637536	      0.12974658	     -0.00637536	      0.17165827	     -0.00637536	      0.13521204	     -0.00637536	      0.12236038	      0.05000000	      0.10000000	      0.05000000	      0.10000000
      0.24775040	   -129.08941503	   -480.13863232	    147.01348670	    561.26844488	      0.00000000	     -0.00000000	     -0.00000000	      0.00000000	      0.00000000	      0.00000000	      0.00000000	      0.00000000	     -0.00000000	     -0.00000000	     -0.00000000	     -0.00000000	     45.52426408	   -222.45558232	      4.37267973	     -0.60614420	      1.59011590	     24.33361856	    -50.23031136	    264.62386158	      0.00387926	     -0.03167246	     -0.47311308	      0.07312167	     17.08838248	    -11.71490420	      0.04561187	      0.07306421	     -0.02329075	     -0.01026798	     23.03782692	     38.78776142	     -0.00000000	      0.00000000	      0.00000000	      0.00000000	     -0.00645577	      0.12969731	     -0.00645577	      0.17171966	     -0.00645577	      0.13511090	     -0.00645577	      0.12222770	      0.05000000	      0.10000000	      0.05000000	      0.10000000
      0.24860164	   -129.49813007	   -480.13863232	    147.49114000	    560.97682846	      0.00000000	     -0.00000000	     -0.00000000	     -0.00000000	      0.00000000	      0.00000000	      0.00000000	      0.00000000	     -0.00000000	     -0.00000000	     -0.00000000	     -0.00000000	     45.33505910	   -222.07908753	      4.37215947	     -0.61616683	      1.61082574	     24.32385105	    -50.00551143	    263.53943727	      0.00385225	     -0.03178284	     -0.47305105	      0.07261882	     17.07835670	    -11.84035494	      0.04567389	      0.07263667	     -0.02329948	     -0.01024670	     23.07102603	     39.21280930	     -0.00000000	     -0.00000000	      0.00000000	      0.00000000	     -0.00656537	      0.12962999	     -0.00656537	      0.17189312	     -0.00656537	      0.13497301	     -0.00656537	      0.12204727	      0.05000000	      0.10000000	      0.05000000	      0.10000000
      0.24945288	   -129.90684511	   -480.13863232	    147.96853817	    560.66890397	      0.00000000	     -0.00000000	     -0.00000000	      0.00000000	      0.00000000	      0.00000000	      0.00000000	      0.00000000	     -0.00000000	     -0.00000000	     -0.00000000	     -0.00000000	     45.14618241	   -221.68415738	      4.37163079	     -0.62594412	      1.63152629	     24.31175285	    -49.78164708	    262.42556775	      0.00382515	     -0.03188318	     -0.47298945	      0.07210928	     17.06822505	    -11.96361186	      0.04573553	      0.07220239	     -0.02330819	     -0.01022437	     23.10458473	     39.63254117	     -0.00000000	      0.00000000	      0.00000000	      0.00000000	     -0.00667496	      0.12956248	     -0.00667496	      0.17197504	     -0.00667496	      0.13483506	     -0.00667496	      0.12186732	      0.05000000	      0.10000000	      0.05000000	      0.10000000
      0.24999985	   -130.16946256	   -480.13863232	    148.27514636	    560.46206190	      0.00000000	     -0.00000000	     -0.00000000	      0.00000000	      0.00000000	      0.00000000	      0.00000000	      0.00000000	     -0.00000000	     -0.00000000	     -0.00000000	     -0.00000000	     45.02500143	   -221.42042643	      4.37128673	     -0.63209319	      1.64482146	     24.30268711	    -49.63830987	    261.69387720	      0.00380769	     -0.03194230	     -0.47295010	      0.07177829	     17.06166004	    -12.04158464	      0.04577495	      0.07191968	     -0.02331378	     -0.01020945	     23.12633526	     39.89924909	     -0.00000000	      0.00000000	      0.00000000	      0.00000000	     -0.00674539	      0.12951902	     -0.00674539	      0.17209756	     -0.00674539	      0.13474640	     -0.00674539	      0.12175195	      0.05000000	      0.10000000	      0.05000000	      0.10000000
      0.25054681	   -130.43208001	   -480.13863232	    148.58163943	    560.24792034	      0.00000000	     -0.00000000	     -0.00000000	     -0.00000000	      0.00000000	      0.00000000	      0.00000000	      0.00000000	     -0.00000000	     -0.00000000	     -0.00000000	     -0.00000000	     44.90396687	   -221.14872438	      4.37093934	     -0.63813535	      1.65811138	     24.29256662	    -49.49537635	    260.94937432	      0.00379021	     -0.03199718	     -0.47291093	      0.07144444	     17.05505266	    -12.11855176	      0.04581421	      0.07163405	     -0.02331936	     -0.01019405	     23.14823100	     40.16348947	     -0.00000000	     -0.00000000	      0.00000000	      0.00000000	     -0.00681581	      0.12947548	     -0.00681581	      0.17214995	     -0.00681581	      0.13465773	     -0.00681581	      0.12163681	      0.05000000	      0.10000000	      0.05000000	      0.10000000
      0.25169584	   -130.98377372	   -480.13863232	    149.22511169	    559.77323554	      0.00000000	     -0.00000000	     -0.00000000	      0.00000000	      0.00000000	      0.00000000	      0.00000000	      0.00000000	     -0.00000000	     -0.00000000	     -0.00000000	     -0.00000000	     44.65020006	   -220.55131946	      4.37019897	     -0.65046999	      1.68601046	     24.26769836	    -49.19645525	    259.34242021	      0.00375338	     -0.03209856	     -0.47282925	      0.07073358	     17.04103671	    -12.27678219	      0.04589617	      0.07102421	     -0.02333105	     -0.01016009	     23.19469521	     40.71004454	     -0.00000000	      0.00000000	      0.00000000	      0.00000000	     -0.00696374	      0.12938378	     -0.00696374	      0.17232139	     -0.00696374	      0.13447143	     -0.00696374	      0.12139565	      0.05000000	      0.10000000	      0.05000000	      0.10000000
      0.25251753	   -131.37830081	   -480.13863232	    149.68492699	    559.41212319	      0.00000000	     -0.00000000	     -0.00000000	      0.00000000	      0.00000000	      0.00000000	      0.00000000	      0.00000000	     -0.00000000	     -0.00000000	     -0.00000000	     -0.00000000	     44.46915789	   -220.10133172	      4.36966097	     -0.65898309	      1.70594266	     24.24674857	    -48.98384023	    258.15640026	      0.00372698	     -0.03215932	     -0.47277134	      0.07021714	     17.03090354	    -12.38688593	      0.04595435	      0.07057971	     -0.02333939	     -0.01013441	     23.22830432	     41.09329292	     -0.00000000	      0.00000000	      0.00000000	      0.00000000	     -0.00706954	      0.12931800	     -0.00706954	      0.17247919	     -0.00706954	      0.13433820	     -0.00706954	      0.12122383	      0.05000000	      0.10000000	      0.05000000	      0.10000000
      0.25351979	   -131.85952409	   -480.13863232	    150.24537157	    558.94577252	      0.00000000	     -0.00000000	     -0.00000000	      0.00000000	      0.00000000	      0.00000000	      0.00000000	      0.00000000	     -0.00000000	     -0.00000000	     -0.00000000	     -0.00000000	     44.24884526	   -219.52585182	      4.36899544	     -0.66900612	      1.73022983	     24.21738488	    -48.72584324	    256.66651198	      0.00369472	     -0.03222001	     -0.47270128	      0.06957779	     17.01842287	    -12.51749736	      0.04602481	      0.07002769	     -0.02334953	     -0.01010142	     23.26972093	     41.55146844	     -0.00000000	      0.00000000	      0.00000000	      0.00000000	     -0.00719858	      0.12923755	     -0.00719858	      0.17260482	     -0.00719858	      0.13417571	     -0.00719858	      0.12101501	      0.05000000	      0.10000000	      0.05000000	      0.10000000
